<?xml version="1.0" standalone="no"?>
<!DOCTYPE svg PUBLIC "-//W3C//DTD SVG 20010904//EN"
 "http://www.w3.org/TR/2001/REC-SVG-20010904/DTD/svg10.dtd">
<svg version="1.0" xmlns="http://www.w3.org/2000/svg"
 width="1200.000000pt" height="1200.000000pt" viewBox="0 0 1200.000000 1200.000000"
 preserveAspectRatio="xMidYMid meet">
<metadata>
Created by potrace 1.14, written by Peter Selinger 2001-2017
</metadata>
<g transform="translate(0.000000,1200.000000) scale(0.100000,-0.100000)"
fill="#000000" stroke="none">
<path d="M0 6000 l0 -6000 6000 0 6000 0 0 6000 0 6000 -6000 0 -6000 0 0
-6000z m4920 3050 c530 -36 1017 -229 1440 -569 79 -63 241 -223 314 -311 l71
-85 65 9 c118 15 504 11 625 -8 153 -23 349 -71 485 -118 247 -86 550 -254
755 -419 496 -399 836 -1001 909 -1610 9 -74 21 -159 26 -190 6 -30 10 -106
10 -167 l0 -112 309 0 309 0 -269 -394 c-148 -217 -269 -399 -269 -406 0 -9
317 -479 493 -730 l38 -55 -303 -5 -303 -5 -5 -462 -5 -462 -216 207 c-119
114 -304 292 -412 395 l-196 188 -93 -77 c-395 -329 -898 -528 -1450 -575
-230 -19 -540 11 -800 76 -403 103 -820 340 -1133 646 l-70 69 -1738 2 -1738
3 238 345 238 345 0 95 0 95 -179 260 c-98 143 -207 302 -242 353 l-64 92 245
0 245 0 0 653 c0 702 2 735 56 975 166 743 673 1380 1359 1708 234 111 427
173 670 214 222 38 365 45 585 30z"/>
<path d="M4550 8669 c-274 -27 -553 -110 -780 -231 -554 -294 -946 -793 -1101
-1401 -63 -249 -62 -237 -67 -929 l-3 -638 651 0 652 0 -49 38 c-326 259 -524
646 -548 1067 -6 100 -5 113 14 143 59 92 186 97 241 8 17 -28 23 -61 30 -155
15 -191 71 -374 162 -524 149 -245 388 -432 663 -516 131 -40 205 -51 348 -51
508 0 957 332 1112 822 32 100 55 232 55 312 0 74 22 122 69 153 65 44 161 21
196 -46 18 -36 20 -167 4 -274 -48 -322 -197 -615 -421 -833 -51 -49 -109
-102 -128 -116 l-35 -27 491 -1 492 0 45 88 c184 357 255 699 235 1125 -19
407 -185 841 -452 1182 -63 80 -211 230 -316 320 -282 240 -666 412 -1050 469
-132 20 -386 28 -510 15z m-238 -948 c70 -33 140 -101 179 -173 32 -60 34 -68
34 -163 0 -90 -3 -106 -29 -160 -37 -74 -104 -141 -182 -180 -52 -26 -70 -29
-149 -30 -83 0 -96 3 -160 34 -82 41 -140 97 -180 177 -27 53 -30 68 -30 154
0 83 3 102 27 150 50 101 123 168 226 207 58 21 206 13 264 -16z m1145 -91
c34 -21 73 -85 73 -121 0 -47 -40 -107 -93 -141 l-52 -33 137 -5 c118 -4 140
-8 164 -26 94 -69 94 -169 0 -238 -27 -20 -39 -21 -439 -21 -466 0 -461 -1
-504 72 -21 36 -25 53 -20 90 2 25 13 57 24 72 17 24 438 284 557 346 60 30
110 32 153 5z"/>
<path d="M6980 7726 c0 -4 25 -61 55 -126 130 -281 200 -548 225 -854 5 -71
10 -138 10 -148 0 -18 5 -16 37 12 68 60 136 84 238 85 81 0 97 -3 157 -32
159 -75 240 -239 204 -412 -60 -287 -414 -396 -624 -192 -23 23 -42 47 -43 53
0 7 -12 -43 -25 -112 -13 -68 -35 -159 -49 -201 -14 -42 -25 -79 -25 -83 0 -3
324 -6 721 -6 l721 0 -3 -120 -4 -120 333 0 332 0 0 153 c0 291 -79 610 -221
896 -315 634 -886 1063 -1569 1181 -124 21 -470 40 -470 26z"/>
<path d="M4270 5326 c0 -2 -34 -280 -75 -619 -41 -338 -75 -620 -75 -626 0
-13 260 -16 260 -3 0 4 13 111 29 237 24 197 32 238 56 285 46 93 112 150 173
150 65 0 67 -28 27 -368 -19 -162 -35 -298 -35 -303 0 -5 58 -9 129 -9 l129 0
6 38 c25 165 67 586 62 628 -7 59 -25 108 -56 147 -78 99 -263 93 -383 -13
-21 -18 -39 -31 -41 -29 -2 2 9 103 25 224 15 121 28 230 29 243 0 22 -2 22
-130 22 -71 0 -130 -2 -130 -4z"/>
<path d="M7115 5318 c-2 -7 -11 -78 -20 -158 -23 -204 -123 -1029 -130 -1063
l-5 -28 133 3 132 3 28 230 c26 219 29 234 65 305 58 117 157 176 205 122 24
-26 21 -84 -17 -391 -23 -186 -29 -264 -21 -267 6 -3 65 -3 131 -2 l119 3 32
260 c51 410 47 471 -38 556 -36 36 -57 49 -97 58 -90 19 -199 -14 -275 -84
-21 -19 -37 -30 -37 -24 0 10 47 404 54 457 l5 32 -130 0 c-95 0 -131 -3 -134
-12z"/>
<path d="M6480 5294 c-151 -32 -305 -139 -395 -273 -167 -253 -165 -624 7
-813 174 -192 534 -196 733 -7 l55 52 -22 29 c-31 45 -93 108 -105 108 -6 0
-35 -16 -64 -37 -168 -115 -352 -71 -419 103 -28 71 -33 225 -11 314 43 173
160 289 309 307 80 9 135 -4 202 -49 44 -29 67 -38 84 -34 13 3 49 35 80 71
65 74 65 79 -6 139 -110 94 -275 128 -448 90z"/>
<path d="M2666 5263 c-10 -64 -146 -1160 -146 -1177 0 -14 35 -16 365 -16 201
0 365 2 365 4 0 12 21 164 25 184 l5 22 -230 0 c-126 0 -230 3 -230 7 0 15 31
259 36 280 4 22 8 23 176 25 l173 3 11 85 c7 47 13 91 13 98 1 9 -40 12 -174
12 l-175 0 4 23 c3 12 10 63 16 112 6 50 13 107 16 128 l6 37 224 0 224 0 5
23 c4 19 25 171 25 183 0 2 -164 4 -364 4 l-364 0 -6 -37z"/>
<path d="M9057 5187 c-10 -6 -35 -61 -57 -121 -22 -61 -46 -113 -52 -118 -7
-4 -31 -10 -54 -14 -60 -9 -67 -17 -74 -78 -8 -74 0 -86 57 -86 l45 0 -6 -42
c-3 -24 -17 -137 -31 -251 -20 -170 -23 -217 -14 -259 30 -139 187 -194 360
-128 94 36 95 37 57 116 l-33 69 -57 -3 c-81 -5 -82 -2 -52 249 13 112 27 214
29 227 5 21 10 22 100 22 107 0 100 -7 111 108 l7 72 -97 0 c-70 0 -96 3 -96
13 0 6 7 57 15 112 8 55 15 106 15 113 0 17 -150 17 -173 -1z"/>
<path d="M3757 4950 c-257 -45 -441 -343 -383 -619 25 -120 85 -199 185 -245
66 -30 223 -29 301 2 62 24 180 115 180 138 0 23 -80 104 -103 104 -11 0 -42
-14 -69 -32 -84 -53 -165 -48 -211 13 -69 94 -19 348 82 415 57 38 97 40 166
11 71 -30 82 -26 145 45 47 54 45 68 -17 111 -78 54 -177 74 -276 57z"/>
<path d="M5459 4949 c-207 -30 -367 -209 -400 -446 -33 -241 93 -422 308 -440
267 -22 502 222 503 523 0 244 -174 399 -411 363z m112 -215 c25 -22 39 -75
39 -145 0 -172 -72 -313 -166 -326 -90 -11 -127 37 -126 169 0 104 17 175 55
238 39 65 86 93 140 86 21 -2 47 -12 58 -22z"/>
<path d="M8390 4950 c-219 -34 -387 -172 -468 -388 -22 -57 -26 -84 -26 -182
-1 -100 2 -122 22 -165 82 -178 283 -205 427 -56 21 23 43 41 47 41 4 0 8 -20
8 -44 0 -68 29 -86 136 -86 46 0 84 1 84 3 1 1 25 189 54 417 47 364 51 416
38 427 -33 27 -228 47 -322 33z m60 -188 c0 -10 -7 -69 -16 -132 -20 -142 -59
-251 -116 -314 -37 -43 -44 -47 -81 -44 -64 5 -82 38 -82 146 1 48 6 105 13
127 17 59 72 144 113 177 65 52 169 77 169 40z"/>
<path d="M5830 3875 c0 -11 191 -130 285 -177 311 -157 626 -232 970 -232 349
0 645 69 955 223 117 58 300 170 300 184 0 4 -565 7 -1255 7 -690 0 -1255 -2
-1255 -5z"/>
<path d="M9220 3871 c0 -6 5 -13 10 -16 6 -3 10 1 10 9 0 9 -4 16 -10 16 -5 0
-10 -4 -10 -9z"/>
</g>
</svg>
